<svg preserveAspectRatio="none" width="100%" height="100%" overflow="visible" style="display: block;" viewBox="0 0 13.9688 13.9688" fill="none" xmlns="http://www.w3.org/2000/svg">
<g id="Container">
<path id="Icon" d="M12.9844 7.96875H7.96875V12.9844C7.96875 13.5469 7.54688 13.9688 6.98438 13.9688C6.42188 13.9688 6 13.5469 6 12.9844V7.96875H0.984375C0.421875 7.96875 0 7.54688 0 6.98438C0 6.42188 0.421875 6 0.984375 6H6V0.984375C6 0.421875 6.42188 0 6.98438 0C7.54688 0 7.96875 0.421875 7.96875 0.984375V6H12.9844C13.5469 6 13.9688 6.42188 13.9688 6.98438C13.9688 7.54688 13.5469 7.96875 12.9844 7.96875V7.96875" fill="var(--fill-0, #64748B)"/>
</g>
</svg>
