<svg preserveAspectRatio="none" width="100%" height="100%" overflow="visible" style="display: block;" viewBox="0 0 16.0312 16.0312" fill="none" xmlns="http://www.w3.org/2000/svg">
<g id="Container">
<path id="Icon" d="M0 10.4062C0 8.625 1.45312 7.21875 3.23438 7.21875C4.96875 7.21875 6.42188 8.625 6.42188 10.4062C6.42188 12.1875 4.96875 13.5938 3.23438 13.5938C1.45312 13.5938 0 12.1875 0 10.4062V10.4062M8.8125 14.0156C8.8125 12.8906 9.70312 12 10.8281 12C11.9062 12 12.7969 12.8906 12.7969 14.0156C12.7969 15.1406 11.9062 16.0312 10.8281 16.0312C9.70312 16.0312 8.8125 15.1406 8.8125 14.0156V14.0156M6.42188 4.82812C6.42188 2.15625 8.57812 0 11.2031 0C13.875 0 16.0312 2.15625 16.0312 4.82812C16.0312 7.45312 13.875 9.60938 11.2031 9.60938C8.57812 9.60938 6.42188 7.45312 6.42188 4.82812V4.82812" fill="var(--fill-0, #60A5FA)"/>
</g>
</svg>
