<svg preserveAspectRatio="none" width="100%" height="100%" overflow="visible" style="display: block;" viewBox="0 0 21.9844 16.6523" fill="none" xmlns="http://www.w3.org/2000/svg">
<g id="Container">
<path id="Icon" d="M16.5 0C14.5781 0 12.4688 0.421875 11.0156 1.5C9.5625 0.421875 7.45312 0 5.53125 0C4.07812 0 2.53125 0.234375 1.21875 0.796875C0.515625 1.125 0 1.82812 0 2.625V13.9219C0 15.2344 1.21875 16.1719 2.48438 15.8438C3.46875 15.6094 4.5 15.5156 5.53125 15.5156C7.07812 15.5156 8.71875 15.75 10.0781 16.4062C10.6875 16.7344 11.3438 16.7344 11.9531 16.4062C13.2656 15.75 14.9531 15.5156 16.5 15.5156C17.4844 15.5156 18.5625 15.6094 19.5469 15.8438C20.7656 16.1719 21.9844 15.2344 21.9844 13.9219V2.625C21.9844 1.82812 21.5156 1.125 20.7656 0.796875C19.5 0.234375 17.9531 0 16.5 0V0M20.0156 12.75C20.0156 13.3594 19.4531 13.8281 18.7969 13.6875C18.0469 13.5469 17.2969 13.5 16.5 13.5C14.8125 13.5 12.375 14.1562 11.0156 15V3.51562C12.375 2.67188 14.8125 2.01562 16.5 2.01562C17.4375 2.01562 18.3281 2.10938 19.2188 2.29688C19.6875 2.39062 20.0156 2.8125 20.0156 3.28125V12.75V12.75M12.9844 6.51562C12.6562 6.51562 12.375 6.32812 12.2812 6C12.1406 5.57812 12.375 5.15625 12.75 5.0625C14.2969 4.54688 16.3125 4.40625 18.1406 4.59375C18.5156 4.64062 18.8438 5.01562 18.7969 5.4375C18.75 5.85938 18.375 6.14062 17.9531 6.09375C16.3125 5.90625 14.5781 6.04688 13.2188 6.46875C13.125 6.46875 13.0781 6.51562 12.9844 6.51562V6.51562M12.9844 9.1875C12.6562 9.1875 12.375 8.95312 12.2812 8.67188C12.1406 8.25 12.375 7.82812 12.75 7.6875C14.2969 7.21875 16.3125 7.03125 18.1406 7.26562C18.5156 7.3125 18.8438 7.6875 18.7969 8.10938C18.75 8.48438 18.375 8.8125 17.9531 8.76562C16.3125 8.57812 14.5781 8.71875 13.2188 9.14062C13.125 9.14062 13.0781 9.1875 12.9844 9.1875V9.1875M12.9844 11.8125C12.6562 11.8125 12.375 11.625 12.2812 11.2969C12.1406 10.9219 12.375 10.5 12.75 10.3594C14.2969 9.89062 16.3125 9.70312 18.1406 9.9375C18.5156 9.98438 18.8438 10.3594 18.7969 10.7344C18.75 11.1562 18.375 11.4375 17.9531 11.3906C16.3125 11.2031 14.5781 11.3906 13.2188 11.8125C13.125 11.8125 13.0781 11.8125 12.9844 11.8125V11.8125" fill="var(--fill-0, #C084FC)"/>
</g>
</svg>
