<svg preserveAspectRatio="none" width="100%" height="100%" overflow="visible" style="display: block;" viewBox="0 0 20.2675 18.0035" fill="none" xmlns="http://www.w3.org/2000/svg">
<g id="Container">
<path id="Icon" d="M11.5452 0.00353074C6.43581 -0.137094 2.26394 3.94103 2.26394 9.00353H0.482685C0.0608103 9.00353 -0.173565 9.56603 0.15456 9.84728L2.92019 12.6598C3.10769 12.8473 3.43581 12.8473 3.62331 12.6598L6.43581 9.84728C6.71706 9.56603 6.52956 9.00353 6.06081 9.00353H4.27956C4.27956 5.11291 7.46706 1.97228 11.3577 2.01916C15.1077 2.06603 18.2483 5.20666 18.2952 8.90978C18.3421 12.8004 15.2014 15.9879 11.2639 15.9879C9.67019 15.9879 8.17019 15.4723 6.99831 14.5348C6.57644 14.2067 6.06081 14.2535 5.68581 14.5817C5.26394 15.0035 5.31081 15.7535 5.77956 16.0817C7.27956 17.3004 9.20144 18.0035 11.2639 18.0035C16.3264 18.0035 20.4046 13.8317 20.2639 8.72228C20.1702 4.03478 16.2327 0.144156 11.5452 0.00353074V0.00353074M11.0296 5.01916C10.6077 5.01916 10.2796 5.34728 10.2796 5.76916V9.42541C10.2796 9.80041 10.4671 10.1285 10.7483 10.316L13.8889 12.1442C14.2639 12.3317 14.7327 12.2379 14.9202 11.8629C15.1077 11.5348 15.0139 11.066 14.6389 10.8317L11.7796 9.14416V5.72228C11.7796 5.34728 11.4514 5.01916 11.0296 5.01916V5.01916" fill="var(--fill-0, #94A3B8)"/>
</g>
</svg>
