<svg preserveAspectRatio="none" width="100%" height="100%" overflow="visible" style="display: block;" viewBox="0 0 9.98438 9.98438" fill="none" xmlns="http://www.w3.org/2000/svg">
<g id="Container">
<path id="Icon" d="M4.99219 0C2.22656 0 0 2.22656 0 4.99219C0 7.75781 2.22656 9.98438 4.99219 9.98438C7.75781 9.98438 9.98438 7.75781 9.98438 4.99219C9.98438 2.22656 7.75781 0 4.99219 0V0M4.99219 9C2.78906 9 0.984375 7.19531 0.984375 4.99219C0.984375 2.78906 2.78906 0.984375 4.99219 0.984375C7.19531 0.984375 9 2.78906 9 4.99219C9 7.19531 7.19531 9 4.99219 9V9M4.875 2.48438H4.85156C4.64062 2.48438 4.5 2.64844 4.5 2.85938V5.20312C4.5 5.39062 4.59375 5.55469 4.73438 5.64844L6.82031 6.89062C6.98438 6.98438 7.19531 6.9375 7.3125 6.77344C7.40625 6.58594 7.35938 6.375 7.17188 6.28125L5.25 5.13281V2.85938C5.25 2.64844 5.08594 2.48438 4.875 2.48438V2.48438" fill="var(--fill-0, #64748B)"/>
</g>
</svg>
