<svg preserveAspectRatio="none" width="100%" height="100%" overflow="visible" style="display: block;" viewBox="0 0 16.0341 18.0022" fill="none" xmlns="http://www.w3.org/2000/svg">
<g id="Container">
<path id="Icon" d="M8.99912 5.5803C8.20224 5.5803 7.59287 6.18967 7.59287 6.98655C7.59287 7.78342 8.20224 8.43967 8.99912 8.43967C9.79599 8.43967 10.4522 7.78342 10.4522 6.98655C10.4522 6.18967 9.79599 5.5803 8.99912 5.5803V5.5803M9.23349 0.00217155C5.38974 -0.0915784 2.20224 2.86155 2.01474 6.65842L0.0928698 9.18967C-0.141505 9.5178 0.0928698 9.98655 0.514745 9.98655H2.01474V12.9865C2.01474 14.1115 2.90537 15.0022 4.03037 15.0022H5.01474V17.0178C5.01474 17.5334 5.48349 18.0022 5.99912 18.0022H11.0147C11.5772 18.0022 11.9991 17.5334 11.9991 17.0178V13.3147C14.4366 12.1428 16.1241 9.65842 16.0304 6.75217C15.8897 3.1428 12.8429 0.0959216 9.23349 0.00217155V0.00217155M11.9991 6.98655C11.9991 7.12717 11.9991 7.2678 11.9991 7.40842L12.8429 8.06467C12.8897 8.11155 12.9366 8.2053 12.8897 8.29905L12.0929 9.7053C12.046 9.79905 11.9054 9.79905 11.8116 9.79905L10.8272 9.37717C10.6397 9.56467 10.4054 9.65842 10.171 9.75217L10.0304 10.8303C9.98349 10.924 9.93662 11.0178 9.79599 11.0178H8.20224C8.10849 11.0178 8.01474 10.924 8.01474 10.8303L7.87412 9.75217C7.59287 9.65842 7.40537 9.56467 7.17099 9.37717L6.18662 9.79905C6.09287 9.79905 5.99912 9.79905 5.95224 9.7053L5.15537 8.29905C5.10849 8.2053 5.10849 8.11155 5.20224 8.06467L6.04599 7.40842C6.04599 7.2678 5.99912 7.12717 5.99912 6.98655C5.99912 6.8928 6.04599 6.75217 6.04599 6.61155L5.20224 5.9553C5.10849 5.90842 5.10849 5.81467 5.15537 5.67405L5.95224 4.31467C5.99912 4.22092 6.09287 4.17405 6.18662 4.22092L7.21787 4.6428C7.40537 4.4553 7.63974 4.31467 7.87412 4.22092L8.01474 3.18967C8.01474 3.04905 8.10849 3.00217 8.20224 3.00217H9.79599C9.93662 3.00217 9.98349 3.04905 10.0304 3.18967L10.171 4.22092C10.4054 4.31467 10.6397 4.4553 10.8272 4.6428L11.8116 4.22092C11.9054 4.17405 12.046 4.22092 12.0929 4.31467L12.8897 5.67405C12.9366 5.7678 12.8897 5.90842 12.8429 5.9553L11.9522 6.61155C11.9991 6.75217 11.9991 6.84592 11.9991 6.98655V6.98655" fill="var(--fill-0, #34D399)"/>
</g>
</svg>
