<svg preserveAspectRatio="none" width="100%" height="100%" overflow="visible" style="display: block;" viewBox="0 0 17.0537 17.0537" fill="none" xmlns="http://www.w3.org/2000/svg">
<path id="Icon" d="M12.5185 11.0185H11.7217L11.4404 10.7373C12.6123 9.33105 13.2685 7.40917 12.8935 5.39355C12.4248 2.62792 10.1279 0.377921 7.31542 0.0497964C3.09667 -0.465829 -0.465829 3.09667 0.0497964 7.31542C0.377921 10.1279 2.62792 12.4248 5.39355 12.8935C7.40917 13.2685 9.33105 12.6123 10.7373 11.4404L11.0185 11.7217V12.5185L15.2373 16.7373C15.6592 17.1592 16.3154 17.1592 16.7373 16.7373C17.1592 16.3623 17.1592 15.6592 16.7373 15.2842L12.5185 11.0185V11.0185M6.51855 11.0185C4.03417 11.0185 2.01855 9.00292 2.01855 6.51855C2.01855 4.03417 4.03417 2.01855 6.51855 2.01855C9.00292 2.01855 11.0185 4.03417 11.0185 6.51855C11.0185 9.00292 9.00292 11.0185 6.51855 11.0185V11.0185" fill="var(--fill-0, #94A3B8)"/>
</svg>
