<svg preserveAspectRatio="none" width="100%" height="100%" overflow="visible" style="display: block;" viewBox="0 0 19.9688 19.9688" fill="none" xmlns="http://www.w3.org/2000/svg">
<g id="Container">
<path id="Icon" d="M9.98438 0C4.45312 0 0 4.45312 0 9.98438C0 15.5156 4.45312 19.9688 9.98438 19.9688C15.5156 19.9688 19.9688 15.5156 19.9688 9.98438C19.9688 4.45312 15.5156 0 9.98438 0V0M9.98438 18C5.57812 18 1.96875 14.3906 1.96875 9.98438C1.96875 5.57812 5.57812 1.96875 9.98438 1.96875C14.3906 1.96875 18 5.57812 18 9.98438C18 14.3906 14.3906 18 9.98438 18V18M9 13.9688H10.9688V15.9844H9V13.9688V13.9688M10.5938 4.03125C8.53125 3.70312 6.70312 5.01562 6.1875 6.79688C6 7.40625 6.42188 7.96875 7.03125 7.96875H7.21875C7.64062 7.96875 7.96875 7.6875 8.10938 7.3125C8.4375 6.42188 9.375 5.8125 10.4062 6.04688C11.3438 6.23438 12.0469 7.17188 12 8.15625C11.9062 9.46875 10.3594 9.75 9.51562 11.0156C9.51562 11.0625 9.51562 11.0625 9.51562 11.0625C9.42188 11.25 9.32812 11.3906 9.23438 11.5781C9.23438 11.625 9.23438 11.625 9.1875 11.6719V11.7188C9.04688 12.0938 9 12.4688 9 12.9844H10.9688C10.9688 12.5625 11.1094 12.2344 11.25 11.9062C11.2969 11.9062 11.2969 11.8594 11.2969 11.8125C11.3906 11.6719 11.4844 11.5312 11.5781 11.4375C11.625 11.4375 11.625 11.3906 11.625 11.3906C11.7188 11.2969 11.8125 11.1562 11.9531 11.0625C12.9375 10.125 14.2031 9.42188 13.9219 7.5C13.6875 5.76562 12.3281 4.26562 10.5938 4.03125V4.03125" fill="var(--fill-0, white)"/>
</g>
</svg>
