<svg preserveAspectRatio="none" width="100%" height="100%" overflow="visible" style="display: block;" viewBox="0 0 13.9688 18" fill="none" xmlns="http://www.w3.org/2000/svg">
<g id="Container">
<path id="Icon" d="M0.984375 15.9844C0.984375 17.1094 1.875 18 3 18H10.9688C12.0938 18 12.9844 17.1094 12.9844 15.9844V6C12.9844 4.92188 12.0938 3.98438 10.9688 3.98438H3C1.875 3.98438 0.984375 4.92188 0.984375 6V15.9844V15.9844M3.98438 6H9.98438C10.5469 6 10.9688 6.46875 10.9688 6.98438V15C10.9688 15.5625 10.5469 15.9844 9.98438 15.9844H3.98438C3.42188 15.9844 3 15.5625 3 15V6.98438C3 6.46875 3.42188 6 3.98438 6V6M10.5 0.984375L9.79688 0.28125C9.60938 0.09375 9.32812 0 9.09375 0H4.875C4.64062 0 4.35938 0.09375 4.17188 0.28125L3.46875 0.984375H0.984375C0.421875 0.984375 0 1.45312 0 2.01562C0 2.53125 0.421875 3 0.984375 3H12.9844C13.5469 3 13.9688 2.53125 13.9688 2.01562C13.9688 1.45312 13.5469 0.984375 12.9844 0.984375H10.5V0.984375" fill="var(--fill-0, #94A3B8)"/>
</g>
</svg>
