<svg preserveAspectRatio="none" width="100%" height="100%" overflow="visible" style="display: block;" viewBox="0 0 16.0312 4.03125" fill="none" xmlns="http://www.w3.org/2000/svg">
<g id="Container">
<path id="Icon" d="M2.01562 0C0.9375 0 0 0.9375 0 2.01562C0 3.09375 0.9375 4.03125 2.01562 4.03125C3.09375 4.03125 4.03125 3.09375 4.03125 2.01562C4.03125 0.9375 3.09375 0 2.01562 0V0M14.0156 0C12.9375 0 12 0.9375 12 2.01562C12 3.09375 12.9375 4.03125 14.0156 4.03125C15.0938 4.03125 16.0312 3.09375 16.0312 2.01562C16.0312 0.9375 15.0938 0 14.0156 0V0M8.01562 0C6.9375 0 6 0.9375 6 2.01562C6 3.09375 6.9375 4.03125 8.01562 4.03125C9.09375 4.03125 10.0312 3.09375 10.0312 2.01562C10.0312 0.9375 9.09375 0 8.01562 0V0" fill="var(--fill-0, #64748B)"/>
</g>
</svg>
