<svg preserveAspectRatio="none" width="100%" height="100%" overflow="visible" style="display: block;" viewBox="0 0 24 23.0156" fill="none" xmlns="http://www.w3.org/2000/svg">
<g id="Container">
<path id="Icon" d="M8.39062 18.1875C8.76562 18.7031 9 19.3125 9 20.0156C9 21.6562 7.64062 23.0156 6 23.0156C4.35938 23.0156 3 21.6562 3 20.0156C3 18.3281 4.35938 17.0156 6 17.0156C6.42188 17.0156 6.84375 17.1094 7.21875 17.25L8.625 15.4688C7.73438 14.4375 7.35938 13.0781 7.54688 11.8125L5.53125 11.1094C4.96875 11.9531 4.07812 12.5156 3 12.5156C1.35938 12.5156 0 11.1562 0 9.51562C0 7.82812 1.35938 6.51562 3 6.51562C4.64062 6.51562 6 7.82812 6 9.51562C6 9.5625 6 9.65625 6 9.70312L8.01562 10.4062C8.67188 9.1875 9.84375 8.29688 11.25 8.0625V5.90625C9.9375 5.57812 9 4.40625 9 3C9 1.35938 10.3594 0 12 0C13.6406 0 15 1.35938 15 3C15 4.40625 14.0625 5.57812 12.75 5.90625V8.0625C14.1562 8.29688 15.3281 9.1875 15.9844 10.4062L18 9.70312C18 9.65625 18 9.5625 18 9.51562C18 7.82812 19.3594 6.51562 21 6.51562C22.6406 6.51562 24 7.82812 24 9.51562C24 11.1562 22.6406 12.5156 21 12.5156C19.9219 12.5156 19.0312 11.9531 18.4688 11.1094L16.4531 11.8125C16.6406 13.0781 16.3125 14.4375 15.375 15.5156L16.7812 17.25C17.1562 17.1094 17.5781 17.0156 18 17.0156C19.6406 17.0156 21 18.3281 21 20.0156C21 21.6562 19.6406 23.0156 18 23.0156C16.3594 23.0156 15 21.6562 15 20.0156C15 19.3125 15.2344 18.7031 15.6094 18.1875L14.2031 16.4531C12.8438 17.2031 11.2031 17.2031 9.79688 16.4531L8.39062 18.1875V18.1875" fill="var(--fill-0, white)"/>
</g>
</svg>
