<svg preserveAspectRatio="none" width="100%" height="100%" overflow="visible" style="display: block;" viewBox="0 0 30 28.7695" fill="none" xmlns="http://www.w3.org/2000/svg">
<g id="Container">
<path id="Icon" d="M10.4883 22.7344C10.957 23.3789 11.25 24.1406 11.25 25.0195C11.25 27.0703 9.55078 28.7695 7.5 28.7695C5.44922 28.7695 3.75 27.0703 3.75 25.0195C3.75 22.9102 5.44922 21.2695 7.5 21.2695C8.02734 21.2695 8.55469 21.3867 9.02344 21.5625L10.7812 19.3359C9.66797 18.0469 9.19922 16.3477 9.43359 14.7656L6.91406 13.8867C6.21094 14.9414 5.09766 15.6445 3.75 15.6445C1.69922 15.6445 0 13.9453 0 11.8945C0 9.78516 1.69922 8.14453 3.75 8.14453C5.80078 8.14453 7.5 9.78516 7.5 11.8945C7.5 11.9531 7.5 12.0703 7.5 12.1289L10.0195 13.0078C10.8398 11.4844 12.3047 10.3711 14.0625 10.0781V7.38281C12.4219 6.97266 11.25 5.50781 11.25 3.75C11.25 1.69922 12.9492 0 15 0C17.0508 0 18.75 1.69922 18.75 3.75C18.75 5.50781 17.5781 6.97266 15.9375 7.38281V10.0781C17.6953 10.3711 19.1602 11.4844 19.9805 13.0078L22.5 12.1289C22.5 12.0703 22.5 11.9531 22.5 11.8945C22.5 9.78516 24.1992 8.14453 26.25 8.14453C28.3008 8.14453 30 9.78516 30 11.8945C30 13.9453 28.3008 15.6445 26.25 15.6445C24.9023 15.6445 23.7891 14.9414 23.0859 13.8867L20.5664 14.7656C20.8008 16.3477 20.3906 18.0469 19.2188 19.3945L20.9766 21.5625C21.4453 21.3867 21.9727 21.2695 22.5 21.2695C24.5508 21.2695 26.25 22.9102 26.25 25.0195C26.25 27.0703 24.5508 28.7695 22.5 28.7695C20.4492 28.7695 18.75 27.0703 18.75 25.0195C18.75 24.1406 19.043 23.3789 19.5117 22.7344L17.7539 20.5664C16.0547 21.5039 14.0039 21.5039 12.2461 20.5664L10.4883 22.7344V22.7344" fill="var(--fill-0, #C31432)"/>
</g>
</svg>
