<svg preserveAspectRatio="none" width="100%" height="100%" overflow="visible" style="display: block;" viewBox="0 0 13.3125 10.6875" fill="none" xmlns="http://www.w3.org/2000/svg">
<g id="Container">
<path id="Icon" d="M12 0H1.3125C0.59375 0 0 0.625 0 1.34375V9.34375C0 10.0625 0.59375 10.6875 1.3125 10.6875H12C12.7188 10.6875 13.3125 10.0625 13.3125 9.34375V1.34375C13.3125 0.625 12.7188 0 12 0V0M11.7188 2.84375L7.375 5.5625C6.9375 5.84375 6.375 5.84375 5.9375 5.5625L1.59375 2.84375C1.4375 2.75 1.3125 2.5625 1.3125 2.375C1.3125 1.90625 1.8125 1.65625 2.1875 1.875L6.65625 4.6875L11.125 1.875C11.5 1.65625 12 1.90625 12 2.375C12 2.5625 11.875 2.75 11.7188 2.84375V2.84375" fill="var(--fill-0, #38BDF8)"/>
</g>
</svg>
