<svg preserveAspectRatio="none" width="100%" height="100%" overflow="visible" style="display: block;" viewBox="0 0 19.1953 11.1562" fill="none" xmlns="http://www.w3.org/2000/svg">
<g id="Container">
<path id="Icon" d="M6.31641 9.46875L2.37891 5.57812L6.31641 1.6875C6.69141 1.26562 6.69141 0.65625 6.31641 0.28125C5.89453 -0.09375 5.28516 -0.09375 4.91016 0.28125L0.316406 4.875C-0.105469 5.25 -0.105469 5.90625 0.316406 6.28125L4.91016 10.875C5.28516 11.25 5.89453 11.25 6.31641 10.875C6.69141 10.5 6.69141 9.89062 6.31641 9.46875V9.46875M12.8789 9.46875L16.8164 5.57812L12.8789 1.6875C12.5039 1.26562 12.5039 0.65625 12.8789 0.28125C13.3008 -0.09375 13.9102 -0.09375 14.2852 0.28125L18.8789 4.875C19.3008 5.25 19.3008 5.90625 18.8789 6.28125L14.2852 10.875C13.9102 11.25 13.3008 11.25 12.8789 10.875C12.5039 10.5 12.5039 9.89062 12.8789 9.46875V9.46875" fill="var(--fill-0, #60A5FA)"/>
</g>
</svg>
