<svg preserveAspectRatio="none" width="100%" height="100%" overflow="visible" style="display: block;" viewBox="0 0 13.3245 13.3275" fill="none" xmlns="http://www.w3.org/2000/svg">
<g id="Container">
<path id="Icon" d="M8.01199 6.67126C8.01199 7.17126 7.73074 7.57751 7.32449 7.82751V12.6713C7.32449 13.0463 7.04324 13.3275 6.66824 13.3275C6.29324 13.3275 6.01199 13.0463 6.01199 12.6713V7.82751C5.60574 7.57751 5.32449 7.17126 5.32449 6.67126C5.32449 5.95251 5.94949 5.32751 6.66824 5.32751C7.38699 5.32751 8.01199 5.95251 8.01199 6.67126V6.67126M5.82449 2.76501C4.32449 3.07751 3.07449 4.26501 2.76199 5.79626C2.48074 7.04626 2.79324 8.20251 3.48074 9.07751C3.69949 9.39001 4.16824 9.39001 4.44949 9.14001L4.48074 9.07751C4.69949 8.85876 4.69949 8.51501 4.51199 8.26501C4.07449 7.64001 3.85574 6.85876 4.07449 6.01501C4.32449 5.04626 5.10574 4.29626 6.04324 4.07751C7.79324 3.67126 9.32449 4.98376 9.32449 6.67126C9.32449 7.26501 9.13699 7.79626 8.82449 8.20251C8.63699 8.48376 8.63699 8.85876 8.88699 9.10876C9.16824 9.39001 9.66824 9.35876 9.88699 9.01501C10.387 8.35876 10.6682 7.54626 10.6682 6.67126C10.6682 4.20251 8.41824 2.23376 5.82449 2.76501V2.76501M5.88699 0.0462601C2.85574 0.39001 0.418241 2.82751 0.0432412 5.85876C-0.175509 7.82751 0.449491 9.64001 1.60574 10.9838C1.85574 11.265 2.29324 11.2963 2.54324 11.0463L2.57449 10.9838C2.82449 10.765 2.82449 10.39 2.60574 10.14C1.57449 8.92126 1.07449 7.20251 1.48074 5.42126C1.94949 3.42126 3.60574 1.82751 5.63699 1.45251C9.01199 0.79626 12.012 3.39001 12.012 6.67126C12.012 7.98376 11.512 9.17126 10.7307 10.1088C10.512 10.39 10.5432 10.765 10.762 11.015C11.0432 11.2963 11.512 11.265 11.762 10.9525C12.7307 9.79626 13.3245 8.29626 13.3245 6.67126C13.3245 2.73376 9.91824 -0.42249 5.88699 0.0462601V0.0462601" fill="var(--fill-0, #38BDF8)"/>
</g>
</svg>
