<svg preserveAspectRatio="none" width="100%" height="100%" overflow="visible" style="display: block;" viewBox="0 0 10.5 10.5" fill="none" xmlns="http://www.w3.org/2000/svg">
<g id="Container">
<path id="Icon" d="M0.574219 7C0.273438 7 0 7.27344 0 7.57422V9.32422C0 9.98047 0.519531 10.5 1.17578 10.5H2.92578C3.22656 10.5 3.5 10.2266 3.5 9.92578C3.5 9.59766 3.22656 9.32422 2.92578 9.32422H1.75C1.42188 9.32422 1.17578 9.07812 1.17578 8.75V7.57422C1.17578 7.27344 0.902344 7 0.574219 7V7M1.17578 1.75C1.17578 1.42188 1.42188 1.17578 1.75 1.17578H2.92578C3.22656 1.17578 3.5 0.902344 3.5 0.574219C3.5 0.273438 3.22656 0 2.92578 0H1.17578C0.519531 0 0 0.519531 0 1.17578V2.92578C0 3.22656 0.273438 3.5 0.574219 3.5C0.902344 3.5 1.17578 3.22656 1.17578 2.92578V1.75V1.75M9.32422 0H7.57422C7.27344 0 7 0.273438 7 0.574219C7 0.902344 7.27344 1.17578 7.57422 1.17578H8.75C9.07812 1.17578 9.32422 1.42188 9.32422 1.75V2.92578C9.32422 3.22656 9.59766 3.5 9.92578 3.5C10.2266 3.5 10.5 3.22656 10.5 2.92578V1.17578C10.5 0.519531 9.98047 0 9.32422 0V0M9.32422 8.75C9.32422 9.07812 9.07812 9.32422 8.75 9.32422H7.57422C7.27344 9.32422 7 9.59766 7 9.92578C7 10.2266 7.27344 10.5 7.57422 10.5H9.32422C9.98047 10.5 10.5 9.98047 10.5 9.32422V7.57422C10.5 7.27344 10.2266 7 9.92578 7C9.59766 7 9.32422 7.27344 9.32422 7.57422V8.75V8.75M5.25 3.5C4.29297 3.5 3.5 4.29297 3.5 5.25C3.5 6.20703 4.29297 7 5.25 7C6.20703 7 7 6.20703 7 5.25C7 4.29297 6.20703 3.5 5.25 3.5V3.5" fill="var(--fill-0, white)"/>
</g>
</svg>
