<svg preserveAspectRatio="none" width="100%" height="100%" overflow="visible" style="display: block;" viewBox="0 0 18 18" fill="none" xmlns="http://www.w3.org/2000/svg">
<g id="Container">
<path id="Icon" d="M18 15.9844V2.01562C18 0.890625 17.1094 0 15.9844 0H2.01562C0.890625 0 0 0.890625 0 2.01562V15.9844C0 17.1094 0.890625 18 2.01562 18H15.9844C17.1094 18 18 17.1094 18 15.9844V15.9844M5.90625 10.9688L8.01562 13.5L11.1094 9.51562C11.2969 9.28125 11.7188 9.28125 11.9062 9.51562L15.4219 14.2031C15.6562 14.5312 15.4219 15 15 15H3C2.57812 15 2.39062 14.5312 2.625 14.2031L5.10938 11.0156C5.29688 10.7344 5.67188 10.7344 5.90625 10.9688V10.9688" fill="var(--fill-0, #94A3B8)"/>
</g>
</svg>
