<svg preserveAspectRatio="none" width="100%" height="100%" overflow="visible" style="display: block;" viewBox="0 0 22.0312 12" fill="none" xmlns="http://www.w3.org/2000/svg">
<g id="Container">
<path id="Icon" d="M22.0312 2.01562C22.0312 3.09375 21.0938 3.98438 20.0156 3.98438C19.8281 3.98438 19.6875 3.98438 19.5 3.9375L15.9375 7.5C15.9844 7.64062 16.0312 7.82812 16.0312 8.01562C16.0312 9.09375 15.0938 9.98438 14.0156 9.98438C12.9375 9.98438 12 9.09375 12 8.01562C12 7.82812 12.0469 7.64062 12.0938 7.5L9.51562 4.92188C9.375 4.96875 9.1875 5.01562 9 5.01562C8.8125 5.01562 8.67188 4.96875 8.48438 4.92188L3.9375 9.46875C3.98438 9.65625 4.03125 9.79688 4.03125 9.98438C4.03125 11.1094 3.09375 12 2.01562 12C0.9375 12 0 11.1094 0 9.98438C0 8.90625 0.9375 8.01562 2.01562 8.01562C2.20312 8.01562 2.34375 8.01562 2.53125 8.0625L7.07812 3.51562C7.03125 3.375 7.03125 3.1875 7.03125 3C7.03125 1.92188 7.92188 0.984375 9 0.984375C10.125 0.984375 11.0156 1.92188 11.0156 3C11.0156 3.1875 11.0156 3.375 10.9688 3.51562L13.5 6.04688C13.6406 6 13.8281 6 14.0156 6C14.2031 6 14.3906 6 14.5312 6.04688L18.0938 2.53125C18.0469 2.34375 18 2.20312 18 2.01562C18 0.890625 18.9375 0 20.0156 0C21.0938 0 22.0312 0.890625 22.0312 2.01562V2.01562M22.0312 2.01562C22.0312 3.09375 21.0938 3.98438 20.0156 3.98438C19.8281 3.98438 19.6875 3.98438 19.5 3.9375L15.9375 7.5C15.9844 7.64062 16.0312 7.82812 16.0312 8.01562C16.0312 9.09375 15.0938 9.98438 14.0156 9.98438C12.9375 9.98438 12 9.09375 12 8.01562C12 7.82812 12.0469 7.64062 12.0938 7.5L9.51562 4.92188C9.375 4.96875 9.1875 5.01562 9 5.01562C8.8125 5.01562 8.67188 4.96875 8.48438 4.92188L3.9375 9.46875C3.98438 9.65625 4.03125 9.79688 4.03125 9.98438C4.03125 11.1094 3.09375 12 2.01562 12C0.9375 12 0 11.1094 0 9.98438C0 8.90625 0.9375 8.01562 2.01562 8.01562C2.20312 8.01562 2.34375 8.01562 2.53125 8.0625L7.07812 3.51562C7.03125 3.375 7.03125 3.1875 7.03125 3C7.03125 1.92188 7.92188 0.984375 9 0.984375C10.125 0.984375 11.0156 1.92188 11.0156 3C11.0156 3.1875 11.0156 3.375 10.9688 3.51562L13.5 6.04688C13.6406 6 13.8281 6 14.0156 6C14.2031 6 14.3906 6 14.5312 6.04688L18.0938 2.53125C18.0469 2.34375 18 2.20312 18 2.01562C18 0.890625 18.9375 0 20.0156 0C21.0938 0 22.0312 0.890625 22.0312 2.01562V2.01562" fill="var(--fill-0, #94A3B8)"/>
</g>
</svg>
