<svg preserveAspectRatio="none" width="100%" height="100%" overflow="visible" style="display: block;" viewBox="0 0 19.9688 15.2071" fill="none" xmlns="http://www.w3.org/2000/svg">
<g id="Container">
<path id="Icon" d="M15.9844 7.60356C15.9844 8.16606 16.4531 8.58794 16.9688 8.58794H18.9844C19.5469 8.58794 19.9688 8.16606 19.9688 7.60356C19.9688 7.04106 19.5469 6.61919 18.9844 6.61919H16.9688C16.4531 6.61919 15.9844 7.04106 15.9844 7.60356V7.60356M14.5781 12.4317C14.25 12.8536 14.3438 13.4629 14.7656 13.7911C15.2812 14.1661 15.8438 14.5879 16.4062 15.0098C16.8281 15.3379 17.4375 15.2442 17.7656 14.8223C17.7656 14.7754 17.7656 14.7754 17.7656 14.7754C18.0938 14.3536 18.0469 13.7442 17.5781 13.4161C17.0625 12.9942 16.5 12.5723 15.9844 12.1973C15.5156 11.8692 14.9062 11.9629 14.5781 12.3848C14.5781 12.4317 14.5781 12.4317 14.5781 12.4317V12.4317M17.8125 0.431687C17.8125 0.384812 17.7656 0.384812 17.7656 0.384812C17.4375 -0.0370632 16.8281 -0.130813 16.4062 0.197312C15.8906 0.572312 15.2812 0.994187 14.7656 1.41606C14.3438 1.74419 14.25 2.35356 14.5781 2.77544C14.5781 2.82231 14.625 2.82231 14.625 2.82231C14.9531 3.24419 15.5625 3.33794 15.9844 3.00981C16.5 2.63481 17.0625 2.21294 17.625 1.79106C18.0469 1.46294 18.0938 0.853562 17.8125 0.431687V0.431687M6 4.60356H1.96875C0.890625 4.60356 0 5.49419 0 6.61919V8.58794C0 9.71294 0.890625 10.6036 1.96875 10.6036H3V13.6036C3 14.1661 3.42188 14.5879 3.98438 14.5879C4.54688 14.5879 4.96875 14.1661 4.96875 13.6036V10.6036H6L10.9688 13.6036V1.60356L6 4.60356V4.60356M13.5 7.60356C13.5 6.29106 12.8906 5.07231 12 4.27544V10.9317C12.8906 10.1348 13.5 8.91606 13.5 7.60356V7.60356" fill="var(--fill-0, #E879F9)"/>
</g>
</svg>
