<svg preserveAspectRatio="none" width="100%" height="100%" overflow="visible" style="display: block;" viewBox="0 0 16 16" fill="none" xmlns="http://www.w3.org/2000/svg">
<g id="clarity:eye-hide-line">
<path id="Vector" d="M11.1956 9.06667C11.3232 8.72558 11.3879 8.36418 11.3867 8C11.3867 7.19138 11.0654 6.41589 10.4937 5.84411C9.92189 5.27233 9.14639 4.95111 8.33778 4.95111C7.97808 4.95153 7.62136 5.01625 7.28444 5.14222L8 5.88C8.10877 5.8626 8.21873 5.85368 8.32889 5.85333C8.90064 5.85214 9.44963 6.07722 9.856 6.47942C10.2624 6.88162 10.4931 7.42827 10.4978 8C10.4974 8.11015 10.4885 8.22011 10.4711 8.32889L11.1956 9.06667Z" fill="var(--fill-0, #C7D2D6)"/>
<path id="Vector_2" d="M15.24 7.79111C13.7422 5.02222 11.1156 3.34667 8.20889 3.34667C7.41749 3.34852 6.63141 3.47604 5.88 3.72444L6.59556 4.44444C7.1226 4.30824 7.66453 4.23807 8.20889 4.23556C10.7111 4.23556 12.9867 5.63111 14.3422 7.98222C13.845 8.85449 13.1858 9.62382 12.4 10.2489L13.0311 10.88C13.9405 10.1464 14.6957 9.24009 15.2533 8.21333L15.3689 8L15.24 7.79111Z" fill="var(--fill-0, #C7D2D6)"/>
<path id="Vector_3" d="M2.16444 2.56889L4.14667 4.55111C2.89374 5.35783 1.86973 6.47367 1.17333 7.79111L1.05778 8L1.17333 8.21333C2.67111 10.9822 5.29778 12.6578 8.20444 12.6578C9.33896 12.6575 10.4587 12.4008 11.48 11.9067L13.7022 14.1289L14.48 13.4622L2.92444 1.90667L2.16444 2.56889ZM6.49778 6.90222L9.45333 9.85778C9.11939 10.0645 8.73495 10.1752 8.34222 10.1778C8.05686 10.1778 7.77431 10.1214 7.51083 10.0118C7.24736 9.90215 7.00816 9.74152 6.80699 9.53912C6.60583 9.33672 6.44668 9.09653 6.33869 8.83239C6.23071 8.56825 6.17602 8.28536 6.17778 8C6.18278 7.61181 6.29341 7.2323 6.49778 6.90222V6.90222ZM5.85333 6.25778C5.43753 6.84418 5.24263 7.5588 5.30316 8.2751C5.36369 8.99141 5.67574 9.6632 6.18405 10.1715C6.69236 10.6798 7.36414 10.9919 8.08045 11.0524C8.79676 11.1129 9.51138 10.918 10.0978 10.5022L10.8089 11.2133C9.98568 11.5652 9.0997 11.7466 8.20444 11.7467C5.70222 11.7467 3.42667 10.3511 2.07111 8C2.72165 6.8481 3.65854 5.88364 4.79111 5.2L5.85333 6.25778Z" fill="var(--fill-0, #C7D2D6)"/>
</g>
</svg>
