<svg preserveAspectRatio="none" width="100%" height="100%" overflow="visible" style="display: block;" viewBox="0 0 19.9688 19.9688" fill="none" xmlns="http://www.w3.org/2000/svg">
<g id="Container">
<path id="Icon" d="M9.98438 4.96875C9.42188 4.96875 9 5.4375 9 6V9H6C5.4375 9 4.96875 9.42188 4.96875 9.98438C4.96875 10.5469 5.4375 10.9688 6 10.9688H9V13.9688C9 14.5312 9.42188 15 9.98438 15C10.5469 15 10.9688 14.5312 10.9688 13.9688V10.9688H13.9688C14.5312 10.9688 15 10.5469 15 9.98438C15 9.42188 14.5312 9 13.9688 9H10.9688V6C10.9688 5.4375 10.5469 4.96875 9.98438 4.96875V4.96875M9.98438 0C4.45312 0 0 4.45312 0 9.98438C0 15.5156 4.45312 19.9688 9.98438 19.9688C15.5156 19.9688 19.9688 15.5156 19.9688 9.98438C19.9688 4.45312 15.5156 0 9.98438 0V0M9.98438 18C5.57812 18 1.96875 14.3906 1.96875 9.98438C1.96875 5.57812 5.57812 1.96875 9.98438 1.96875C14.3906 1.96875 18 5.57812 18 9.98438C18 14.3906 14.3906 18 9.98438 18V18" fill="var(--fill-0, #C31432)"/>
</g>
</svg>
