<svg preserveAspectRatio="none" width="100%" height="100%" overflow="visible" style="display: block;" viewBox="0 0 10.4766 12.7617" fill="none" xmlns="http://www.w3.org/2000/svg">
<g id="Container">
<path id="Icon" d="M8.68359 4.5H7.48828V0.738281C7.48828 0.351562 7.13672 0 6.75 0H3.72656C3.33984 0 2.98828 0.351562 2.98828 0.738281V4.5H1.79297C1.125 4.5 0.773438 5.30859 1.26562 5.76562L4.71094 9.21094C4.99219 9.52734 5.48438 9.52734 5.76562 9.21094L9.21094 5.76562C9.66797 5.30859 9.35156 4.5 8.68359 4.5V4.5M0 11.9883C0 12.4102 0.316406 12.7617 0.738281 12.7617H9.73828C10.1602 12.7617 10.4766 12.4102 10.4766 11.9883C10.4766 11.6016 10.1602 11.25 9.73828 11.25H0.738281C0.316406 11.25 0 11.6016 0 11.9883V11.9883" fill="var(--fill-0, white)"/>
</g>
</svg>
