<svg preserveAspectRatio="none" width="100%" height="100%" overflow="visible" style="display: block;" viewBox="0 0 19.2881 19.2881" fill="none" xmlns="http://www.w3.org/2000/svg">
<g id="Container">
<path id="Icon" d="M6.95785 3.84585C4.94223 6.14273 3.53598 9.47085 3.39535 9.7521L1.14535 8.76773C0.489102 8.48648 0.301602 7.64273 0.817227 7.17398L3.81723 4.1271C4.28598 3.65835 4.9891 3.47085 5.64535 3.61148L6.95785 3.84585V3.84585M8.45785 14.0177C8.7391 14.3459 9.20785 14.3927 9.58285 14.2052C10.7079 13.6896 13.2391 12.424 14.8329 10.8302C19.4266 6.23648 19.4735 2.48648 19.1922 0.892727C19.0985 0.470852 18.8172 0.142727 18.3954 0.0958522C16.8016 -0.185398 13.0516 -0.138523 8.45785 4.45523C6.8641 6.04898 5.59848 8.53335 5.03598 9.70523C4.84848 10.0802 4.94223 10.549 5.27035 10.8302L8.45785 14.0177V14.0177M15.4422 12.3302C13.1454 14.3459 9.81723 15.7521 9.53598 15.8927L10.5204 18.1427C10.8016 18.799 11.6454 18.9865 12.1141 18.4709L15.161 15.4709C15.6297 15.0021 15.8172 14.299 15.6766 13.6427L15.4422 12.3302V12.3302M6.72348 14.9084C6.91098 15.9865 6.58285 16.9709 5.87973 17.6271C5.12973 18.424 2.7391 18.9865 1.19223 19.2677C0.489102 19.4084 -0.120273 18.799 0.0203524 18.0959C0.301602 16.549 0.864102 14.1584 1.66098 13.4084C2.31723 12.7052 3.3016 12.3771 4.37973 12.5646C5.5516 12.799 6.4891 13.7365 6.72348 14.9084V14.9084M10.7547 6.51773C10.7547 5.4396 11.6922 4.5021 12.7704 4.5021C13.8485 4.5021 14.786 5.4396 14.786 6.51773C14.786 7.59585 13.8485 8.53335 12.7704 8.53335C11.6922 8.53335 10.7547 7.59585 10.7547 6.51773V6.51773" fill="var(--fill-0, #C31432)"/>
</g>
</svg>
