<svg preserveAspectRatio="none" width="100%" height="100%" overflow="visible" style="display: block;" viewBox="0 0 13.5 14.9414" fill="none" xmlns="http://www.w3.org/2000/svg">
<g id="Container">
<path id="Icon" d="M11.25 10.5469C10.6875 10.5469 10.1602 10.7578 9.77344 11.1094L4.42969 8.01562C4.46484 7.83984 4.5 7.66406 4.5 7.48828C4.5 7.3125 4.46484 7.13672 4.42969 6.96094L9.70312 3.86719C10.125 4.25391 10.6523 4.5 11.25 4.5C12.4805 4.5 13.5 3.48047 13.5 2.25C13.5 0.984375 12.4805 0 11.25 0C10.0195 0 9 0.984375 9 2.25C9 2.42578 9.03516 2.60156 9.07031 2.77734L3.79688 5.83594C3.375 5.48438 2.84766 5.23828 2.25 5.23828C1.01953 5.23828 0 6.25781 0 7.48828C0 8.71875 1.01953 9.73828 2.25 9.73828C2.84766 9.73828 3.375 9.49219 3.79688 9.14062L9.10547 12.2344C9.07031 12.4102 9.07031 12.5859 9.07031 12.7266C9.07031 13.957 10.0547 14.9414 11.25 14.9414C12.4453 14.9414 13.4297 13.957 13.4297 12.7266C13.4297 11.5312 12.4453 10.5469 11.25 10.5469V10.5469" fill="var(--fill-0, white)"/>
</g>
</svg>
