<svg preserveAspectRatio="none" width="100%" height="100%" overflow="visible" style="display: block;" viewBox="0 0 19.9688 19.9688" fill="none" xmlns="http://www.w3.org/2000/svg">
<g id="Container">
<path id="Icon" d="M9.98438 0C4.45312 0 0 4.45312 0 9.98438C0 15.5156 4.45312 19.9688 9.98438 19.9688C11.3438 19.9688 12.4688 18.8438 12.4688 17.4844C12.4688 16.875 12.2344 16.2656 11.8594 15.7969C11.7656 15.7031 11.7188 15.6094 11.7188 15.4688C11.7188 15.1875 11.9531 15 12.2344 15H13.9688C17.2969 15 19.9688 12.2812 19.9688 9C19.9688 4.03125 15.5156 0 9.98438 0V0M15.4688 10.9688C14.6719 10.9688 13.9688 10.3125 13.9688 9.46875C13.9688 8.67188 14.6719 7.96875 15.4688 7.96875C16.3125 7.96875 16.9688 8.67188 16.9688 9.46875C16.9688 10.3125 16.3125 10.9688 15.4688 10.9688V10.9688M12.4688 6.98438C11.6719 6.98438 10.9688 6.32812 10.9688 5.48438C10.9688 4.64062 11.6719 3.98438 12.4688 3.98438C13.3125 3.98438 13.9688 4.64062 13.9688 5.48438C13.9688 6.32812 13.3125 6.98438 12.4688 6.98438V6.98438M3 9.46875C3 8.67188 3.65625 7.96875 4.5 7.96875C5.29688 7.96875 6 8.67188 6 9.46875C6 10.3125 5.29688 10.9688 4.5 10.9688C3.65625 10.9688 3 10.3125 3 9.46875V9.46875M9 5.48438C9 6.32812 8.29688 6.98438 7.5 6.98438C6.65625 6.98438 6 6.32812 6 5.48438C6 4.64062 6.65625 3.98438 7.5 3.98438C8.29688 3.98438 9 4.64062 9 5.48438V5.48438" fill="var(--fill-0, #94A3B8)"/>
</g>
</svg>
